<?xml version="1.0" encoding="UTF-8"?>
<svg xmlns="http://www.w3.org/2000/svg" viewBox="0 0 64 64" width="64" height="64">
    <!-- Copy-Trading - Hand-drawn charts with arrows -->
    <defs>
        <filter id="wash3">
            <feTurbulence baseFrequency="0.04" numOctaves="2" result="noise"/>
            <feDisplacementMap in="SourceGraphic" in2="noise" scale="1"/>
        </filter>
    </defs>
    
    <!-- Main chart (wash background) -->
    <path d="M7.8 19.5 Q8.0 19.2 8.5 19.4 L27.9 19.8 Q28.2 19.7 28.1 20.1 L28.3 43.8 Q28.4 44.2 28.0 44.1 L8.6 43.7 Q8.3 43.8 8.2 43.4 L8.0 19.7 Q7.9 19.3 7.8 19.5 Z" 
          fill="#3b82f6" opacity="0.2" filter="url(#wash3)"/>
    
    <!-- Main chart outline -->
    <path d="M8.2 20.1 Q8.0 19.9 8.4 20.0 L27.8 20.4 Q28.0 20.3 28.1 20.7 L28.0 43.6 Q28.1 44.0 27.7 43.9 L8.3 43.5 Q8.1 43.6 8.0 43.2 L8.1 20.3 Q8.0 19.9 8.2 20.1 Z" 
          fill="none" stroke="#1e293b" stroke-width="1.8" stroke-linejoin="round"/>
    
    <!-- Chart line (hand-drawn) -->
    <path d="M12.1 36.2 Q12.0 36.0 12.3 36.1 Q15.8 28.3 16.0 28.2 Q16.2 28.1 19.7 31.8 Q20.0 32.0 20.2 31.7 Q23.7 24.9 23.9 24.8 Q24.1 24.7 24.3 24.9" 
          fill="none" stroke="#fbbf24" stroke-width="2.5" stroke-linecap="round"/>
    
    <!-- User icon (sketchy circle) -->
    <circle cx="14.1" cy="16.2" r="1.8" fill="#3b82f6" opacity="0.7" filter="url(#wash3)"/>
    <path d="M12.4 16.1 Q12.2 15.9 12.6 16.0 Q14.0 14.2 14.2 14.1 Q14.4 14.0 15.8 15.9 Q16.2 16.1 16.0 16.4 Q14.6 18.2 14.4 18.3 Q14.2 18.4 12.8 16.5 Q12.4 16.3 12.4 16.1 Z" 
          fill="none" stroke="#1e293b" stroke-width="1.5"/>
    
    <!-- Copy arrows (hand-drawn) -->
    <path d="M30.1 28.2 Q30.0 28.0 30.3 28.1 L35.8 28.0 Q36.1 27.9 36.0 28.2" 
          stroke="#fbbf24" stroke-width="2.2" fill="none" stroke-linecap="round"/>
    <path d="M34.2 26.1 Q34.0 25.9 34.3 26.0 L35.9 27.9 Q36.1 28.1 35.8 28.3 L34.2 30.2 Q34.0 30.4 34.2 30.1" 
          stroke="#fbbf24" stroke-width="2.2" fill="none" stroke-linecap="round"/>
    
    <path d="M30.2 36.1 Q30.1 35.9 30.4 36.0 L35.7 36.2 Q36.0 36.1 35.9 36.4" 
          stroke="#fbbf24" stroke-width="2.2" fill="none" stroke-linecap="round"/>
    <path d="M34.1 34.2 Q33.9 34.0 34.2 34.1 L35.8 35.9 Q36.0 36.1 35.7 36.3 L34.1 38.1 Q33.9 38.3 34.1 38.0" 
          stroke="#fbbf24" stroke-width="2.2" fill="none" stroke-linecap="round"/>
    
    <!-- Copied charts (smaller, sketchy) -->
    <path d="M40.1 16.2 Q40.0 16.0 40.3 16.1 L55.8 16.4 Q56.1 16.3 56.0 16.6 L55.9 31.7 Q56.0 32.0 55.7 31.9 L40.2 31.6 Q39.9 31.7 40.0 31.4 L40.1 16.5 Q40.0 16.2 40.1 16.2 Z" 
          fill="#3b82f6" opacity="0.1" filter="url(#wash3)"/>
    <path d="M40.2 16.3 Q40.1 16.1 40.4 16.2 L55.7 16.5 Q55.9 16.4 56.0 16.7 L55.8 31.6 Q55.9 31.9 55.6 31.8 L40.3 31.5 Q40.1 31.6 40.0 31.3 L40.2 16.6 Q40.1 16.3 40.2 16.3 Z" 
          fill="none" stroke="#1e293b" stroke-width="1.2"/>
    
    <path d="M42.1 26.0 Q42.0 25.8 42.2 25.9 Q43.8 22.1 44.0 22.0 Q44.2 21.9 45.8 23.8 Q46.0 24.0 46.2 23.7 Q49.8 20.1 50.0 20.0" 
          fill="none" stroke="#fbbf24" stroke-width="1.8" stroke-linecap="round"/>
    
    <path d="M40.0 36.1 Q39.9 35.9 40.2 36.0 L55.9 36.3 Q56.2 36.2 56.1 36.5 L56.0 51.8 Q56.1 52.1 55.8 52.0 L40.1 51.7 Q39.8 51.8 39.9 51.5 L40.0 36.4 Q39.9 36.1 40.0 36.1 Z" 
          fill="#3b82f6" opacity="0.1" filter="url(#wash3)"/>
    <path d="M40.1 36.2 Q40.0 36.0 40.3 36.1 L55.8 36.4 Q56.0 36.3 56.1 36.6 L55.9 51.7 Q56.0 52.0 55.7 51.9 L40.2 51.6 Q40.0 51.7 39.9 51.4 L40.1 36.5 Q40.0 36.2 40.1 36.2 Z" 
          fill="none" stroke="#1e293b" stroke-width="1.2"/>
    
    <path d="M42.0 46.1 Q41.9 45.9 42.1 46.0 Q43.7 42.2 43.9 42.1 Q44.1 42.0 45.7 43.9 Q45.9 44.1 46.1 43.8 Q49.7 40.2 49.9 40.1" 
          fill="none" stroke="#fbbf24" stroke-width="1.8" stroke-linecap="round"/>
    
    <!-- Followers indicator (hand-drawn) -->
    <path d="M47.8 57.8 Q47.6 57.6 47.9 57.7 Q48.0 57.5 48.2 57.6 Q48.4 57.5 48.5 57.7 Q48.7 57.6 48.8 57.8 Q48.7 58.0 48.5 57.9 Q48.3 58.0 48.2 57.8 Q48.0 57.9 47.9 57.7 Q47.7 57.8 47.8 57.6" 
          fill="none" stroke="#1e293b" stroke-width="1"/>
    
    <!-- "127" text (sketchy) -->
    <text x="48" y="58.5" text-anchor="middle" fill="#1e293b" font-size="5" font-family="serif">127</text>
</svg>
