<?xml version="1.0" encoding="UTF-8"?>
<svg xmlns="http://www.w3.org/2000/svg" viewBox="0 0 64 64" width="64" height="64">
    <!-- Daily Challenges - Hand-drawn calendar with trophy -->
    <defs>
        <filter id="wash1">
            <feTurbulence baseFrequency="0.04" numOctaves="3" result="noise"/>
            <feDisplacementMap in="SourceGraphic" in2="noise" scale="0.8"/>
        </filter>
    </defs>
    
    <!-- Calendar wash background -->
    <path d="M7 15 Q8 14.5 9 15 L54 15.5 Q56 16 56 18 L56.5 54 Q56 56 54 56 L9 55.5 Q7 55 7 53 Z" 
          fill="#3b82f6" opacity="0.3" filter="url(#wash1)"/>
    
    <!-- Calendar outline -->
    <path d="M8.2 16.1 Q8 15.9 8.5 16 L55.1 16.3 Q56 16.2 55.8 17.1 L55.9 54.2 Q56.1 55 55.2 54.8 L8.8 54.5 Q8 54.7 8.2 53.8 Z" 
          fill="none" stroke="#1e293b" stroke-width="2.2" stroke-linecap="round"/>
    
    <!-- Calendar rings -->
    <circle cx="18.1" cy="11.9" r="1.8" fill="none" stroke="#1e293b" stroke-width="1.5"/>
    <circle cx="45.9" cy="12.1" r="1.7" fill="none" stroke="#1e293b" stroke-width="1.5"/>
    
    <!-- Header divider -->
    <path d="M8.5 24.1 Q32 23.8 55.5 24.2" stroke="#1e293b" stroke-width="1.8" stroke-linecap="round"/>
    
    <!-- Calendar grid (sketchy) -->
    <path d="M12.1 28 Q19.9 27.8 19.8 33.9 Q20.1 34 12.2 33.8 Q12 28.1 12.1 28 Z" 
          fill="#3b82f6" opacity="0.6" stroke="#1e293b" stroke-width="1"/>
    <path d="M22.9 28.2 Q29.8 28 30.1 33.7 Q30 34.1 23.1 33.9 Q22.8 28.3 22.9 28.2 Z" 
          fill="none" stroke="#1e293b" stroke-width="1"/>
    <path d="M32.8 28.1 Q39.9 28.2 40.2 33.8 Q39.8 34 32.9 33.7 Q32.7 28.2 32.8 28.1 Z" 
          fill="none" stroke="#1e293b" stroke-width="1"/>
    <path d="M42.7 28.3 Q49.8 28.1 50.1 33.9 Q49.9 34.2 42.8 33.8 Q42.6 28.4 42.7 28.3 Z" 
          fill="none" stroke="#1e293b" stroke-width="1"/>
    
    <!-- Second row -->
    <path d="M12.2 36 Q19.7 35.9 20 41.8 Q19.8 42.1 12.3 41.9 Q12.1 36.1 12.2 36 Z" 
          fill="none" stroke="#1e293b" stroke-width="1"/>
    <path d="M23.1 36.1 Q29.9 36 30.2 41.7 Q29.9 42 23.2 41.8 Q22.9 36.2 23.1 36.1 Z" 
          fill="#3b82f6" opacity="0.6" stroke="#1e293b" stroke-width="1"/>
    
    <!-- Trophy (hand-drawn) -->
    <path d="M28.2 44 Q28.1 43.8 29 44 L34.8 44.1 Q36 44 35.8 45.2 L34.1 47.8 Q33.9 48 33 47.9 L30.8 47.7 Q29 47.8 28.9 46.1 Z" 
          fill="#fbbf24" opacity="0.7" stroke="#1e293b" stroke-width="1.5" stroke-linejoin="round"/>
    
    <!-- Trophy base -->
    <path d="M30.1 48.8 Q30 48.6 30.5 48.7 L33.4 48.9 Q34 48.8 33.9 49.4 L33.7 51.2 Q33.8 52 33.1 51.9 L30.6 51.7 Q30 51.8 30.1 51.1 Z" 
          fill="#fbbf24" opacity="0.7" stroke="#1e293b" stroke-width="1.2"/>
    
    <!-- Trophy stand -->
    <path d="M28.8 52.1 Q28.7 51.9 29.2 52 L34.7 52.2 Q35.2 52.1 35.1 52.6 L35 53.8 Q35.1 54.3 34.6 54.2 L29.3 54 Q28.8 54.1 28.9 53.6 Z" 
          fill="none" stroke="#1e293b" stroke-width="1.5" stroke-linecap="round"/>
</svg>
