<?xml version="1.0" encoding="UTF-8"?>
<svg xmlns="http://www.w3.org/2000/svg" viewBox="0 0 64 64" width="64" height="64">
    <!-- Milestone Rewards - Hand-drawn treasure chest -->
    <defs>
        <filter id="wash4">
            <feTurbulence baseFrequency="0.03" numOctaves="3" result="noise"/>
            <feDisplacementMap in="SourceGraphic" in2="noise" scale="1.5"/>
        </filter>
    </defs>
    
    <!-- Chest wash background -->
    <path d="M15.8 31.5 Q16.0 31.2 16.5 31.4 L47.9 31.9 Q48.2 31.8 48.1 32.2 L48.3 51.7 Q48.4 52.1 48.0 52.0 L16.6 51.5 Q16.3 51.6 16.2 51.2 L16.0 31.8 Q15.9 31.4 15.8 31.5 Z" 
          fill="#3b82f6" opacity="0.2" filter="url(#wash4)"/>
    
    <!-- Chest outline (hand-drawn) -->
    <path d="M16.2 32.1 Q16.0 31.9 16.4 32.0 L47.7 32.4 Q48.0 32.3 47.9 32.7 L48.1 51.6 Q48.2 52.0 47.8 51.9 L16.4 51.5 Q16.1 51.6 16.0 51.2 L16.2 32.4 Q16.1 32.0 16.2 32.1 Z" 
          fill="none" stroke="#1e293b" stroke-width="2.2" stroke-linejoin="round"/>
    
    <!-- Chest lid -->
    <path d="M16.1 32.2 Q16.0 32.0 16.3 32.1 L47.8 32.5 Q48.1 32.4 48.0 32.8 L47.9 37.6 Q48.0 38.0 47.6 37.9 L16.2 37.5 Q15.9 37.6 16.0 37.2 L16.1 32.5 Q16.0 32.1 16.1 32.2 Z" 
          fill="#3b82f6" opacity="0.3" stroke="#1e293b" stroke-width="1.8"/>
    
    <!-- Lock mechanism -->
    <path d="M30.1 28.2 Q29.9 28.0 30.2 28.1 L33.7 28.3 Q34.0 28.2 33.9 28.5 L33.8 35.9 Q33.9 36.2 33.6 36.1 L30.1 35.9 Q29.8 36.0 29.9 35.7 L30.1 28.5 Q30.0 28.1 30.1 28.2 Z" 
          fill="none" stroke="#1e293b" stroke-width="1.5"/>
    
    <!-- Floating coins (hand-drawn) -->
    <circle cx="24.1" cy="20.2" r="2.8" fill="#fbbf24" opacity="0.8" filter="url(#wash4)"/>
    <path d="M21.4 20.1 Q21.2 19.9 21.6 20.0 Q24.0 17.2 24.2 17.1 Q24.4 17.0 26.8 19.9 Q27.2 20.1 27.0 20.4 Q24.6 23.2 24.4 23.3 Q24.2 23.4 21.8 20.5 Q21.4 20.3 21.4 20.1 Z" 
          fill="none" stroke="#1e293b" stroke-width="1.2"/>
    <text x="24.1" y="22" text-anchor="middle" fill="#1e293b" font-size="3.5" font-weight="bold">$</text>
    
    <circle cx="36.2" cy="16.1" r="2.7" fill="#fbbf24" opacity="0.8" filter="url(#wash4)"/>
    <path d="M33.6 16.0 Q33.4 15.8 33.8 15.9 Q36.1 13.2 36.3 13.1 Q36.5 13.0 38.8 15.8 Q39.2 16.0 39.0 16.3 Q36.7 19.1 36.5 19.2 Q36.3 19.3 34.0 16.4 Q33.6 16.2 33.6 16.0 Z" 
          fill="none" stroke="#1e293b" stroke-width="1.2"/>
    <text x="36.2" y="17.8" text-anchor="middle" fill="#1e293b" font-size="3.5" font-weight="bold">$</text>
    
    <circle cx="42.1" cy="22.3" r="2.6" fill="#fbbf24" opacity="0.8" filter="url(#wash4)"/>
    <path d="M39.6 22.2 Q39.4 22.0 39.8 22.1 Q42.0 19.4 42.2 19.3 Q42.4 19.2 44.6 22.0 Q45.0 22.2 44.8 22.5 Q42.6 25.3 42.4 25.4 Q42.2 25.5 40.0 22.6 Q39.6 22.4 39.6 22.2 Z" 
          fill="none" stroke="#1e293b" stroke-width="1.2"/>
    <text x="42.1" y="24" text-anchor="middle" fill="#1e293b" font-size="3.5" font-weight="bold">$</text>
    
    <!-- Milestone progress bars (sketchy) -->
    <path d="M20.1 38.2 Q20.0 38.0 20.3 38.1 L25.8 38.3 Q26.1 38.2 26.0 38.5 L25.9 39.7 Q26.0 40.0 25.7 39.9 L20.2 39.7 Q19.9 39.8 20.0 39.5 L20.1 38.5 Q20.0 38.1 20.1 38.2 Z" 
          fill="#fbbf24" opacity="0.7" stroke="#1e293b" stroke-width="1"/>
    
    <path d="M28.0 38.1 Q27.9 37.9 28.2 38.0 L33.9 38.2 Q34.2 38.1 34.1 38.4 L34.0 39.8 Q34.1 40.1 33.8 40.0 L28.1 39.8 Q27.8 39.9 27.9 39.6 L28.0 38.4 Q27.9 38.0 28.0 38.1 Z" 
          fill="#fbbf24" opacity="0.7" stroke="#1e293b" stroke-width="1"/>
    
    <path d="M36.1 38.3 Q36.0 38.1 36.3 38.2 L41.8 38.4 Q42.1 38.3 42.0 38.6 L41.9 39.6 Q42.0 39.9 41.7 39.8 L36.2 39.6 Q35.9 39.7 36.0 39.4 L36.1 38.6 Q36.0 38.2 36.1 38.3 Z" 
          fill="#3b82f6" opacity="0.5" stroke="#1e293b" stroke-width="1"/>
    
    <!-- Sparkle effects (hand-drawn) -->
    <path d="M12.1 24.2 Q12.0 24.0 12.2 24.1 L13.8 25.9 Q14.0 26.1 13.7 26.3 L12.1 28.1 Q11.9 28.3 12.1 28.0 L13.7 26.2 Q14.0 26.0 13.8 25.8 L12.2 24.0 Q12.0 23.8 12.1 24.2 Z" 
          fill="#fbbf24" opacity="0.8"/>
    
    <path d="M52.0 18.1 Q51.9 17.9 52.1 18.0 L53.7 19.8 Q53.9 20.0 53.6 20.2 L52.0 22.0 Q51.8 22.2 52.0 21.9 L53.6 20.1 Q53.9 19.9 53.7 19.7 L52.1 17.9 Q51.9 17.7 52.0 18.1 Z" 
          fill="#fbbf24" opacity="0.8"/>
</svg>
