<?xml version="1.0" encoding="UTF-8"?>
<svg xmlns="http://www.w3.org/2000/svg" viewBox="0 0 64 64" width="64" height="64">
    <!-- Portable Reputation - Hand-drawn badge with blockchain -->
    <defs>
        <filter id="wash6">
            <feTurbulence baseFrequency="0.04" numOctaves="3" result="noise"/>
            <feDisplacementMap in="SourceGraphic" in2="noise" scale="1.2"/>
        </filter>
    </defs>
    
    <!-- Badge outer ring (wash) -->
    <circle cx="32.1" cy="28.2" r="15.8" fill="#3b82f6" opacity="0.2" filter="url(#wash6)"/>
    
    <!-- Badge outer ring (outline) -->
    <path d="M16.3 28.1 Q16.2 27.9 16.5 28.0 Q32.0 12.1 32.2 12.0 Q32.4 11.9 47.9 27.9 Q48.2 28.1 48.0 28.4 Q32.5 44.3 32.3 44.4 Q32.1 44.5 16.6 28.5 Q16.3 28.3 16.3 28.1 Z" 
          fill="none" stroke="#1e293b" stroke-width="2.2" stroke-linejoin="round"/>
    
    <!-- Badge inner circle (wash) -->
    <circle cx="32.0" cy="28.1" r="9.8" fill="#1e293b" opacity="0.6" filter="url(#wash6)"/>
    
    <!-- Badge inner circle (outline) -->
    <path d="M22.3 28.0 Q22.2 27.8 22.5 27.9 Q32.0 18.1 32.1 18.0 Q32.3 17.9 41.8 27.8 Q42.1 28.0 41.9 28.3 Q32.4 38.1 32.2 38.2 Q32.0 38.3 22.5 28.4 Q22.2 28.2 22.3 28.0 Z" 
          fill="none" stroke="#1e293b" stroke-width="1.8"/>
    
    <!-- Checkmark/verification symbol (hand-drawn) -->
    <path d="M28.1 24.2 Q28.0 24.0 28.2 24.1 Q31.9 20.3 32.1 20.2 Q32.3 20.1 35.9 23.9 Q36.2 24.1 36.1 24.4 L36.0 31.8 Q36.1 32.1 35.8 32.0 Q32.2 35.8 32.0 35.9 Q31.8 36.0 28.2 32.2 Q27.9 32.0 28.0 31.7 L28.1 24.3 Q28.0 24.0 28.1 24.2 Z" 
          fill="#fbbf24" opacity="0.8" filter="url(#wash6)"/>
    <path d="M28.2 24.3 Q28.1 24.1 28.4 24.2 Q31.9 20.4 32.1 20.3 Q32.3 20.2 35.8 24.1 Q36.1 24.3 36.0 24.6 L35.9 31.7 Q36.0 32.0 35.7 31.9 Q32.2 35.7 32.0 35.8 Q31.8 35.9 28.3 32.0 Q28.0 31.8 28.1 31.5 L28.2 24.5 Q28.1 24.1 28.2 24.3 Z" 
          fill="none" stroke="#1e293b" stroke-width="1.5"/>
    
    <!-- Check mark inside -->
    <path d="M29.8 28.0 Q29.7 27.8 29.9 27.9 Q31.0 29.1 31.2 29.0 Q31.4 28.9 34.1 26.2" 
          stroke="#1e293b" stroke-width="2" fill="none" stroke-linecap="round"/>
    
    <!-- Blockchain blocks (hand-drawn) -->
    <path d="M7.9 47.8 Q8.1 47.6 8.5 47.7 L15.8 48.1 Q16.2 48.0 16.1 48.4 L16.0 53.7 Q16.1 54.1 15.7 54.0 L8.4 53.6 Q8.0 53.7 8.1 53.3 L8.2 48.0 Q8.1 47.6 7.9 47.8 Z" 
          fill="#1e293b" opacity="0.3" stroke="#1e293b" stroke-width="1.2"/>
    
    <path d="M19.8 47.9 Q20.0 47.7 20.4 47.8 L27.7 48.2 Q28.1 48.1 28.0 48.5 L27.9 53.8 Q28.0 54.2 27.6 54.1 L20.3 53.7 Q19.9 53.8 20.0 53.4 L20.1 48.1 Q20.0 47.7 19.8 47.9 Z" 
          fill="#1e293b" opacity="0.3" stroke="#1e293b" stroke-width="1.2"/>
    
    <path d="M31.9 48.0 Q32.1 47.8 32.5 47.9 L39.8 48.3 Q40.2 48.2 40.1 48.6 L40.0 53.9 Q40.1 54.3 39.7 54.2 L32.4 53.8 Q32.0 53.9 32.1 53.5 L32.2 48.2 Q32.1 47.8 31.9 48.0 Z" 
          fill="#1e293b" opacity="0.3" stroke="#1e293b" stroke-width="1.2"/>
    
    <path d="M43.8 48.1 Q44.0 47.9 44.4 48.0 L51.7 48.4 Q52.1 48.3 52.0 48.7 L51.9 54.0 Q52.0 54.4 51.6 54.3 L44.3 53.9 Q43.9 54.0 44.0 53.6 L44.1 48.3 Q44.0 47.9 43.8 48.1 Z" 
          fill="#1e293b" opacity="0.3" stroke="#1e293b" stroke-width="1.2"/>
    
    <!-- Chain connections (hand-drawn) -->
    <path d="M16.0 51.1 Q15.9 50.9 16.1 51.0 L19.8 51.2 Q20.1 51.1 20.0 51.4" 
          stroke="#fbbf24" stroke-width="2" fill="none" stroke-linecap="round"/>
    <path d="M28.0 51.2 Q27.9 51.0 28.1 51.1 L31.9 51.3 Q32.2 51.2 32.1 51.5" 
          stroke="#fbbf24" stroke-width="2" fill="none" stroke-linecap="round"/>
    <path d="M40.1 51.3 Q40.0 51.1 40.2 51.2 L43.8 51.4 Q44.1 51.3 44.0 51.6" 
          stroke="#fbbf24" stroke-width="2" fill="none" stroke-linecap="round"/>
    
    <!-- Connection to badge -->
    <path d="M32.1 44.2 Q32.0 44.0 32.2 44.1 L32.0 47.9 Q32.1 48.2 31.8 48.1" 
          stroke="#fbbf24" stroke-width="2" fill="none" stroke-linecap="round"/>
    
    <!-- Timestamp (hand-drawn) -->
    <text x="32" y="60" text-anchor="middle" fill="#1e293b" font-size="4" font-family="serif">2025-08-13</text>
</svg>
